<svg width="45" height="44" viewBox="0 0 45 44" fill="none" xmlns="http://www.w3.org/2000/svg">
<g style="mix-blend-mode:darken">
<path d="M10.557 14.3974L14.4102 20.9908C14.6979 21.4831 14.8418 21.7292 14.8418 22C14.8418 22.2707 14.6979 22.5169 14.4102 23.0091L10.557 29.6025C9.29479 31.7622 8.6637 32.8421 9.14208 33.3841C9.62046 33.9262 10.7704 33.4343 13.0703 32.4504L33.2015 23.8388C35.0388 23.0528 35.9574 22.6598 35.9574 22C35.9574 21.3401 35.0388 20.9471 33.2015 20.1611L13.0703 11.5495C10.7704 10.5656 9.62046 10.0737 9.14208 10.6158C8.6637 11.1578 9.29479 12.2377 10.557 14.3974Z" fill="#222222"/>
</g>
</svg>