<svg width="79" height="37" viewBox="0 0 79 37" fill="none" xmlns="http://www.w3.org/2000/svg">
<path d="M77.0498 15.0039L65.4893 12.0289L56.1424 2.58588C54.7849 1.46096 53.0911 0.831931 51.3374 0.802831V0.802033L37.5593 0L35.4488 0.0570025C34.1551 0.381085 32.9965 1.11496 32.1443 2.15218L21.7159 11.9448L4.29656 15.4376L0 21.2738L3.05052 27.7615L10.6709 30.1767C11.2542 33.5268 14.129 35.9684 17.4899 35.9684C20.3896 35.9684 22.9825 34.1387 23.9863 31.3874H54.6266C55.2842 34.6533 58.1241 37 61.4176 37C65.012 37 68.0093 34.2184 68.3216 30.5941L74.2596 29.2559L79 22.6124L77.0498 15.0039ZM72.7347 26.9136L65.5172 28.5416C65.6752 29.006 65.7567 29.4935 65.7567 29.9842C65.7567 32.4102 63.812 34.3771 61.4164 34.3771C59.0196 34.3771 57.0753 32.4102 57.0753 29.9842C57.0753 29.5732 57.1328 29.1626 57.2463 28.7664H21.8191C21.8231 28.8294 21.8238 28.8964 21.8238 28.9593C21.8238 31.3814 19.8815 33.3474 17.4887 33.3474C15.0966 33.3474 13.1535 31.3814 13.1535 28.9593C13.1535 28.717 13.1744 28.475 13.2134 28.2358L4.90186 25.6005L3.00799 21.5732L5.77614 17.8118L22.938 14.3712L34.044 3.9424C34.4977 3.34207 35.1231 2.89681 35.8347 2.668L37.5191 2.62136L51.2456 3.4218C52.394 3.43097 53.5069 3.82441 54.4108 4.54074L64.1617 14.392L74.9279 17.162L76.187 22.0779L72.7347 26.9136ZM37.6711 5.3348L29.2647 13.7191H55.1283L53.1009 6.23928L37.6711 5.3348ZM34.3811 11.5976L38.4792 7.50771L51.4768 8.26988L52.3767 11.5976H34.3811Z" fill="black"/>
</svg>