<svg width="19" height="19" viewBox="0 0 19 19" fill="none" xmlns="http://www.w3.org/2000/svg">
<path d="M3.78274 11.8935L2.91254 11.4008C3.04943 11.1591 3.24205 10.9676 3.39422 10.8164C3.40803 10.8026 3.42151 10.7892 3.43459 10.7762L11.7537 2.45708C11.7665 2.44424 11.7793 2.43141 11.7921 2.4186C12.0919 2.11868 12.3833 1.8272 12.656 1.61916C12.9634 1.38463 13.3613 1.16418 13.875 1.16418C14.3886 1.16418 14.7866 1.38463 15.094 1.61916C15.3667 1.82721 15.658 2.11869 15.9578 2.41861C15.9706 2.43142 15.9835 2.44424 15.9963 2.45708L16.5429 3.00365C16.5557 3.01648 16.5685 3.0293 16.5813 3.04211C16.8813 3.34192 17.1727 3.63328 17.3808 3.90595C17.6153 4.21335 17.8358 4.61131 17.8358 5.12497C17.8358 5.63864 17.6153 6.0366 17.3808 6.34399C17.1727 6.61666 16.8813 6.90802 16.5814 7.20782C16.5685 7.22063 16.5557 7.23345 16.5429 7.24629L8.2238 15.5654C8.21072 15.5784 8.19732 15.5919 8.18359 15.6057C8.03235 15.7579 7.8409 15.9505 7.59913 16.0874L3.78274 11.8935ZM3.78274 11.8935L2.91254 11.4008C2.77566 11.6426 2.71059 11.9063 2.65918 12.1146C2.65452 12.1335 2.64996 12.1519 2.64548 12.1699L1.85695 15.324M3.78274 11.8935L1.85695 15.324M1.85695 15.324C1.85415 15.3352 1.85122 15.3468 1.8482 15.3588C1.81138 15.5053 1.76038 15.7082 1.74281 15.8878C1.72259 16.0945 1.71591 16.5465 2.08469 16.9153C2.45347 17.284 2.90544 17.2774 3.11212 17.2571C3.29173 17.2396 3.49464 17.1886 3.64112 17.1517C3.65313 17.1487 3.66476 17.1458 3.67596 17.143L6.83009 16.3545M1.85695 15.324L6.83009 16.3545M6.83009 16.3545C6.84802 16.35 6.86648 16.3454 6.88539 16.3408M6.83009 16.3545L6.88539 16.3408M6.88539 16.3408C7.09369 16.2894 7.35736 16.2243 7.59912 16.0874L6.88539 16.3408Z" stroke="#33363F" stroke-width="2"/>
<path d="M11.0625 3.4375L14.4375 1.1875L17.8125 4.5625L15.5625 7.9375L11.0625 3.4375Z" fill="#33363F"/>
</svg>
