<svg width="38" height="33" viewBox="0 0 38 33" fill="none" xmlns="http://www.w3.org/2000/svg">
<path d="M33.462 3.92326C32.6264 3.08729 31.6343 2.42414 30.5423 1.9717C29.4504 1.51925 28.28 1.28638 27.0981 1.28638C25.9161 1.28638 24.7457 1.51925 23.6538 1.9717C22.5619 2.42414 21.5698 3.08729 20.7342 3.92326L19.0001 5.65738L17.2659 3.92326C15.5781 2.23545 13.289 1.28725 10.9021 1.28725C8.51514 1.28725 6.22598 2.23545 4.53817 3.92326C2.85036 5.61107 1.90216 7.90023 1.90216 10.2871C1.90216 12.6741 2.85036 14.9632 4.53817 16.651L6.27229 18.3852L19.0001 31.1129L31.7278 18.3852L33.462 16.651C34.2979 15.8155 34.9611 14.8234 35.4135 13.7314C35.866 12.6395 36.0988 11.4691 36.0988 10.2871C36.0988 9.10519 35.866 7.93481 35.4135 6.84287C34.9611 5.75093 34.2979 4.75884 33.462 3.92326V3.92326Z" fill="#FFFFFF" stroke="white" stroke-width="2.25974" stroke-linecap="round" stroke-linejoin="round"/>
</svg>