<svg width="31" height="37" viewBox="0 0 31 37" fill="none" xmlns="http://www.w3.org/2000/svg">
<path fill-rule="evenodd" clip-rule="evenodd" d="M0.647728 12.362C0.041626 13.6798 0.041626 15.179 0.041626 18.1773V27.5415C0.041626 31.7056 0.041626 33.7876 1.33524 35.0813C2.62885 36.3749 4.71089 36.3749 8.87496 36.3749H8.97913V25.3333C8.97913 23.5614 10.4155 22.125 12.1875 22.125H18.8125C20.5844 22.125 22.0208 23.5614 22.0208 25.3333V36.3749H22.125C26.289 36.3749 28.3711 36.3749 29.6647 35.0813C30.9583 33.7876 30.9583 31.7056 30.9583 27.5415V18.1773C30.9583 15.179 30.9583 13.6798 30.3522 12.362C29.7461 11.0442 28.6078 10.0685 26.3313 8.11719L24.1229 6.22433L24.1229 6.22432C20.0081 2.69733 17.9507 0.933838 15.5 0.933838C13.0492 0.933838 10.9918 2.69733 6.87698 6.22433L6.87697 6.22433L4.66864 8.11719L4.66864 8.11719C2.3921 10.0685 1.25383 11.0442 0.647728 12.362ZM20.0208 36.3749V25.3333C20.0208 24.666 19.4798 24.125 18.8125 24.125H12.1875C11.5201 24.125 10.9791 24.666 10.9791 25.3333V36.3749H20.0208Z" fill="#222222"/>
</svg>
