<svg width="15" height="15" viewBox="0 0 15 15" fill="none" xmlns="http://www.w3.org/2000/svg">
<g clip-path="url(#clip0_12_635)">
<path d="M12.6546 6.02592C12.6546 10.2441 7.23118 13.8597 7.23118 13.8597C7.23118 13.8597 1.8078 10.2441 1.8078 6.02592C1.8078 4.58755 2.37919 3.20809 3.39627 2.19101C4.41335 1.17393 5.79281 0.602539 7.23118 0.602539C8.66955 0.602539 10.049 1.17393 11.0661 2.19101C12.0832 3.20809 12.6546 4.58755 12.6546 6.02592Z" stroke="white" stroke-width="1.35584" stroke-linecap="round" stroke-linejoin="round"/>
<path d="M7.23118 7.83371C8.22959 7.83371 9.03897 7.02433 9.03897 6.02592C9.03897 5.0275 8.22959 4.21812 7.23118 4.21812C6.23276 4.21812 5.42338 5.0275 5.42338 6.02592C5.42338 7.02433 6.23276 7.83371 7.23118 7.83371Z" stroke="white" stroke-width="1.35584" stroke-linecap="round" stroke-linejoin="round"/>
</g>
<defs>
<clipPath id="clip0_12_635">
<rect width="14.4623" height="14.4623" fill="white"/>
</clipPath>
</defs>
</svg>