<svg width="250" height="250" viewBox="0 0 250 250" fill="none" xmlns="http://www.w3.org/2000/svg">
        <path d="M52.0833 127.058C52.0833 126.049 52.0833 125.545 52.305 125.114C52.5266 124.683 52.9372 124.39 53.7584 123.804L123.838 73.747C124.399 73.3461 124.68 73.1456 125 73.1456C125.32 73.1456 125.601 73.3461 126.162 73.747L196.242 123.804C197.063 124.39 197.473 124.683 197.695 125.114C197.917 125.545 197.917 126.049 197.917 127.058V216.75C197.917 217.693 197.917 218.164 197.624 218.457C197.331 218.75 196.859 218.75 195.917 218.75H54.0833C53.1405 218.75 52.6691 218.75 52.3762 218.457C52.0833 218.164 52.0833 217.693 52.0833 216.75V127.058Z" fill="white" fill-opacity="0.24"/>
        <path d="M31.25 134.803C31.25 135.07 31.25 135.204 31.3341 135.245C31.4182 135.286 31.5235 135.204 31.7342 135.04L123.772 63.455C124.362 62.9963 124.657 62.7669 125 62.7669C125.343 62.7669 125.638 62.9963 126.228 63.455L218.266 135.04C218.476 135.204 218.582 135.286 218.666 135.245C218.75 135.204 218.75 135.07 218.75 134.803V115.562C218.75 115.081 218.75 114.841 218.648 114.633C218.547 114.425 218.357 114.278 217.978 113.983L126.228 42.6217C125.638 42.1629 125.343 41.9335 125 41.9335C124.657 41.9335 124.362 42.1629 123.772 42.6217L32.0221 113.983C31.643 114.278 31.4534 114.425 31.3517 114.633C31.25 114.841 31.25 115.081 31.25 115.562V134.803Z" fill="#222222"/>
        <path d="M149.042 156.25H100.958C99.8537 156.25 98.9583 157.145 98.9583 158.25V218.6C98.9583 218.683 99.0255 218.75 99.1083 218.75H150.892C150.974 218.75 151.042 218.683 151.042 218.6V158.25C151.042 157.145 150.146 156.25 149.042 156.25Z" fill="#222222"/>
        <rect x="166.667" y="52.0833" width="20.8333" height="41.6667" rx="0.5" fill="#222222"/>
        <path d="M129.235 118.541C128.468 120.863 127.778 123.136 127.163 125.36C126.625 127.535 126.227 129.217 125.968 130.405C125.642 131.906 125.367 133.32 125.144 134.647C124.921 135.974 124.733 137.145 124.578 138.159L122.42 137.69C122.934 133.217 123.087 129.648 122.881 126.983C122.688 124.256 121.775 122.126 120.144 120.592C118.512 119.059 115.726 117.864 111.786 117.007L106.721 115.906L95.1181 169.284C94.5744 171.785 94.3854 173.709 94.5513 175.055C94.7798 176.415 95.5343 177.463 96.8151 178.2C98.0958 178.936 100.036 179.653 102.635 180.349L102.228 182.225C100.629 181.747 98.5785 181.235 96.0769 180.692C93.5889 180.085 91.0628 179.504 88.4987 178.946C85.6844 178.334 83.0197 177.788 80.5045 177.307C78.0655 176.777 76.0819 176.411 74.5537 176.21L74.9616 174.333C77.6154 174.779 79.6779 174.933 81.1489 174.794C82.6199 174.656 83.7103 174.008 84.4199 172.853C85.1921 171.711 85.8501 169.889 86.3939 167.387L97.9965 114.01L92.9308 112.909C89.0534 112.066 86.0229 111.997 83.8395 112.701C81.7186 113.419 80.0043 114.978 78.6964 117.379C77.4022 119.718 76.0604 123.028 74.671 127.311L72.5134 126.842C72.856 125.868 73.17 124.725 73.4555 123.412C73.8035 122.112 74.1406 120.711 74.4669 119.211C74.7252 118.022 75.0297 116.32 75.3804 114.104C75.8073 111.839 76.1539 109.491 76.4203 107.06C79.0334 107.694 81.8653 108.375 84.9162 109.103C88.0296 109.846 91.1497 110.557 94.2767 111.236C97.4037 111.916 100.249 112.535 102.813 113.092C105.378 113.649 108.192 114.261 111.256 114.927C114.383 115.607 117.517 116.255 120.658 116.873C123.798 117.49 126.657 118.046 129.235 118.541ZM135.904 119.99C137.204 120.338 138.91 120.775 141.023 121.299C143.136 121.824 145.224 122.311 147.288 122.759C150.227 123.398 153.048 123.979 155.751 124.501C158.454 125.023 160.368 125.406 161.494 125.651C168.06 127.078 172.702 129.528 175.418 133C178.135 136.472 179.024 140.366 178.086 144.681C177.61 146.87 176.672 148.926 175.272 150.848C173.948 152.722 172.032 154.303 169.525 155.592C167.094 156.832 164.012 157.603 160.279 157.905L160.238 158.092C165.043 159.792 168.631 161.816 171.002 164.165C173.449 166.466 174.984 168.895 175.607 171.454C176.23 174.012 176.262 176.574 175.705 179.138C174.93 182.703 173.337 185.664 170.925 188.021C168.589 190.33 165.563 191.899 161.846 192.728C158.129 193.558 153.925 193.463 149.235 192.443C147.859 192.144 145.802 191.664 143.064 191.003C140.339 190.28 137.038 189.497 133.161 188.654C130.972 188.179 128.807 187.741 126.668 187.341C124.541 186.879 122.808 186.568 121.467 186.407L121.875 184.531C124.029 184.868 125.678 184.965 126.822 184.821C128.03 184.69 128.943 184.103 129.563 183.058C130.183 182.014 130.738 180.367 131.227 178.115L141.341 131.586C141.844 129.272 142.024 127.542 141.88 126.398C141.749 125.19 141.162 124.277 140.118 123.657C139.15 122.988 137.609 122.391 135.496 121.866L135.904 119.99ZM158.761 126.923C155.884 126.298 153.893 126.422 152.786 127.295C151.679 128.168 150.772 130.23 150.066 133.482L139.952 180.012C139.476 182.2 139.303 183.898 139.434 185.106C139.564 186.313 140.089 187.213 141.008 187.806C141.927 188.399 143.356 188.906 145.295 189.327C151.424 190.659 156.17 190.217 159.533 188.001C162.973 185.736 165.264 181.977 166.406 176.724C167.452 171.908 166.948 167.901 164.892 164.704C162.899 161.52 158.932 159.282 152.99 157.991L143.328 155.89C143.328 155.89 143.383 155.64 143.491 155.14C143.614 154.577 143.675 154.296 143.675 154.296L151.742 156.049C155.432 156.851 158.427 156.782 160.728 155.841C163.042 154.838 164.825 153.26 166.079 151.11C167.346 148.896 168.272 146.445 168.856 143.756C169.862 139.128 169.585 135.433 168.024 132.67C166.539 129.859 163.452 127.943 158.761 126.923Z" fill="white" fill-opacity="0.69"/>
        </svg>