<svg width="36" height="32" viewBox="0 0 36 32" fill="none" xmlns="http://www.w3.org/2000/svg">
<path fill-rule="evenodd" clip-rule="evenodd" d="M9 1.87706C9 1.1696 8.28547 0.685838 7.62861 0.948584L0.628609 3.74858C0.248951 3.90045 0 4.26816 0 4.67706V30.523C0 31.2305 0.714526 31.7142 1.37139 31.4515L8.37139 28.6515C8.75105 28.4996 9 28.1319 9 27.723V1.87706ZM11 27.4692C11 27.9281 11.3123 28.3281 11.7575 28.4394L23.7575 31.4394C24.3886 31.5972 25 31.1198 25 30.4693V4.5308C25 4.07194 24.6877 3.67195 24.2425 3.56066L12.2425 0.560661C11.6114 0.402874 11 0.880233 11 1.5308V27.4692ZM27.6286 3.34858C27.249 3.50045 27 3.86816 27 4.27706V30.123C27 30.8305 27.7145 31.3142 28.3714 31.0515L35.3714 28.2515C35.751 28.0996 36 27.7319 36 27.323V1.47706C36 0.769596 35.2855 0.285838 34.6286 0.548584L27.6286 3.34858Z" fill="#222222"/>
</svg>
