<svg width="26" height="24" viewBox="0 0 26 24" fill="none" xmlns="http://www.w3.org/2000/svg">
<path d="M0.31487 1.45603C0 2.02646 0 2.77319 0 4.26667V5.08514L25.9848 2.9046C25.9582 2.2527 25.8853 1.81873 25.6851 1.45603C25.4082 0.95426 24.9662 0.546312 24.4226 0.290649C23.8047 0 22.9957 0 21.3778 0H4.62222C3.00429 0 2.19533 0 1.57736 0.290649C1.03378 0.546312 0.591838 0.95426 0.31487 1.45603Z" fill="#222222"/>
<path d="M26 5.58098L18.973 6.17066L22.5932 23.993C23.4475 23.9757 23.9833 23.916 24.4226 23.7094C24.9662 23.4537 25.4082 23.0457 25.6851 22.544C26 21.9735 26 21.2268 26 19.7333V5.58098Z" fill="#222222"/>
<path fill-rule="evenodd" clip-rule="evenodd" d="M19.6554 24L16.0831 6.41317L0 7.7628V19.7333C0 21.2268 0 21.9735 0.31487 22.544C0.591838 23.0457 1.03378 23.4537 1.57736 23.7094C2.19533 24 3.00429 24 4.62222 24H19.6554ZM13.7222 16.0392C13.7222 18.9171 10.6315 20.9387 9.28326 21.6837C8.90114 21.8949 8.4322 21.8949 8.05008 21.6837C6.70185 20.9387 3.61111 18.9171 3.61111 16.0392C3.61111 13.2157 6.0607 11.3333 8.66667 11.3333C11.363 11.3333 13.7222 13.2157 13.7222 16.0392Z" fill="#222222"/>
<path d="M10.1111 16C10.1111 16.7364 9.46441 17.3333 8.66667 17.3333C7.86892 17.3333 7.22222 16.7364 7.22222 16C7.22222 15.2636 7.86892 14.6667 8.66667 14.6667C9.46441 14.6667 10.1111 15.2636 10.1111 16Z" fill="#222222"/>
</svg>
