<svg width="34" height="40" viewBox="0 0 34 40" fill="none" xmlns="http://www.w3.org/2000/svg">
<path d="M27.3333 10.8333C27.3333 16.5403 22.7069 21.1667 17 21.1667C11.293 21.1667 6.66666 16.5403 6.66666 10.8333C6.66666 5.12639 11.293 0.5 17 0.5C22.7069 0.5 27.3333 5.12639 27.3333 10.8333Z" fill="#222222"/>
<path d="M33.8738 33.6645C33.9172 33.7608 33.8939 33.8739 33.8163 33.9455C30.8427 36.6913 27.0305 38.5439 22.7957 39.0873C21.5281 39.25 20.0187 39.25 17 39.25C13.9814 39.25 12.472 39.25 11.2044 39.0873C6.96973 38.5439 3.15763 36.6914 0.183999 33.9457C0.106392 33.8741 0.0830773 33.761 0.126491 33.6647C2.74157 27.8642 9.31035 23.75 17.0002 23.75C24.69 23.75 31.2587 27.8641 33.8738 33.6645Z" fill="#222222"/>
</svg>
