<svg width="12" height="11" viewBox="0 0 12 11" fill="none" xmlns="http://www.w3.org/2000/svg">
<path d="M4.7079 2.49203C5.13269 1.42736 5.34509 0.89503 5.69017 0.821251C5.7809 0.801852 5.87468 0.801852 5.96542 0.821251C6.31049 0.89503 6.52289 1.42736 6.94769 2.49203C7.18926 3.09749 7.31005 3.40022 7.53606 3.60612C7.59945 3.66387 7.66826 3.71531 7.74154 3.75971C8.00276 3.91799 8.32886 3.94735 8.98105 4.00608C10.0851 4.10548 10.6371 4.15518 10.8057 4.47161C10.8406 4.53715 10.8644 4.60811 10.8759 4.68153C10.9318 5.03607 10.526 5.40725 9.71436 6.14962L9.48897 6.35577C9.10951 6.70284 8.91978 6.87638 8.81004 7.09295C8.74421 7.22286 8.70007 7.36277 8.67939 7.50708C8.64491 7.74764 8.70047 7.99939 8.81159 8.50289L8.85129 8.68278C9.05056 9.58572 9.15019 10.0372 9.02582 10.2591C8.9141 10.4584 8.70831 10.586 8.48098 10.597C8.22791 10.6091 7.87131 10.317 7.15813 9.73274C6.68825 9.34782 6.45331 9.15536 6.19251 9.08017C5.95417 9.01147 5.70142 9.01147 5.46308 9.08017C5.20227 9.15536 4.96733 9.34782 4.49746 9.73274C3.78427 10.317 3.42768 10.6091 3.1746 10.597C2.94728 10.586 2.74149 10.4584 2.62977 10.2591C2.50539 10.0372 2.60503 9.58572 2.8043 8.68278L2.844 8.50289C2.95512 7.99939 3.01067 7.74764 2.9762 7.50708C2.95551 7.36277 2.91138 7.22286 2.84555 7.09295C2.7358 6.87638 2.54608 6.70284 2.16662 6.35577L1.94123 6.14962C1.12959 5.40725 0.723765 5.03607 0.779653 4.68153C0.791228 4.60811 0.814965 4.53715 0.849879 4.47161C1.01845 4.15518 1.57048 4.10548 2.67453 4.00608C3.32673 3.94735 3.65282 3.91799 3.91405 3.75971C3.98732 3.71531 4.05613 3.66387 4.11953 3.60612C4.34554 3.40022 4.46633 3.09749 4.7079 2.49203Z" fill="#222222" stroke="white" stroke-width="0.5"/>
</svg>